{
  "asset": {
    "version": "2.0",
    "generator": "THREE.GLTFExporter r166"
  },
  "scenes": [
    {
      "name": "AuxScene",
      "nodes": [
        24
      ]
    }
  ],
  "scene": 0,
  "nodes": [
    {
      "extras": {
        "isFurnituresHandles": true
      }
    },
    {
      "matrix": [
        1,
        0,
        0,
        0,
        0,
        1,
        0,
        0,
        0,
        0,
        1,
        0,
        0,
        0,
        330,
        1
      ],
      "children": [
        0
      ]
    },
    {
      "extras": {
        "isFurnituresHandles": true
      }
    },
    {
      "matrix": [
        0,
        -1,
        2.220446049250313e-16,
        0,
        2.220446049250313e-16,
        2.220446049250313e-16,
        1,
        0,
        -1,
        0,
        2.220446049250313e-16,
        0,
        -300,
        0,
        0,
        1
      ],
      "children": [
        2
      ]
    },
    {
      "extras": {
        "isFurnituresHandles": true
      }
    },
    {
      "matrix": [
        -1,
        2.465190328815662e-32,
        -1.2246467991473532e-16,
        0,
        -1.2246467991473532e-16,
        -2.220446049250313e-16,
        1,
        0,
        0,
        1,
        2.220446049250313e-16,
        0,
        0,
        1015,
        0,
        1
      ],
      "children": [
        4
      ]
    },
    {
      "extras": {
        "isFurnituresHandles": true
      }
    },
    {
      "matrix": [
        0,
        1,
        -2.220446049250313e-16,
        0,
        -2.220446049250313e-16,
        2.220446049250313e-16,
        1,
        0,
        1,
        0,
        2.220446049250313e-16,
        0,
        300,
        0,
        0,
        1
      ],
      "children": [
        6
      ]
    },
    {
      "matrix": [
        0.04575877636671066,
        0,
        0,
        0,
        0,
        0.05033465102314949,
        0,
        0,
        0,
        0,
        0.05033465102314949,
        0,
        0,
        -15.100395202636719,
        51.09859085083008,
        1
      ],
      "name": "Cube",
      "extras": {
        "name": "Cube",
        "conform_object": [],
        "chrome": 1
      },
      "mesh": 0
    },
    {
      "matrix": [
        0.09127718210220337,
        0,
        0,
        0,
        0,
        0.294920951128006,
        0,
        0,
        0,
        0,
        0.6520309448242188,
        0,
        15.058445930480957,
        -0.5198948383331299,
        43.35782241821289,
        1
      ],
      "name": "Cube001",
      "extras": {
        "name": "Cube.001",
        "conform_object": [],
        "chrome": 1
      },
      "mesh": 1
    },
    {
      "matrix": [
        0.04575877636671066,
        0,
        0,
        0,
        0,
        0.05033465102314949,
        0,
        0,
        0,
        0,
        0.05033465102314949,
        0,
        0,
        -15.100395202636719,
        51.09859085083008,
        1
      ],
      "name": "Cube002",
      "extras": {
        "name": "Cube.002",
        "conform_object": [],
        "chrome": 1
      },
      "mesh": 2
    },
    {
      "matrix": [
        0.09127718210220337,
        0,
        0,
        0,
        0,
        0.294920951128006,
        0,
        0,
        0,
        0,
        0.6520309448242188,
        0,
        15.058445930480957,
        -0.5198948383331299,
        22.048460006713867,
        1
      ],
      "name": "Cube003",
      "extras": {
        "name": "Cube.003",
        "conform_object": [],
        "chrome": 1
      },
      "mesh": 3
    },
    {
      "matrix": [
        0.9943487048149109,
        0,
        0,
        0,
        0,
        0.9943487048149109,
        0,
        0,
        0,
        0,
        0.5033465027809143,
        0,
        14.972993850708008,
        -6.033832550048828,
        0.5033496022224426,
        1
      ],
      "name": "Cylinder",
      "extras": {
        "name": "Cylinder",
        "conform_object": []
      },
      "mesh": 4
    },
    {
      "matrix": [
        0.48850417137145996,
        0,
        0,
        0,
        0,
        0.48850417137145996,
        0,
        0,
        0,
        0,
        9.714388847351074,
        0,
        14.025172233581543,
        1.743516206741333,
        52.33631896972656,
        1
      ],
      "name": "Cylinder001",
      "extras": {
        "name": "Cylinder.001",
        "conform_object": [],
        "chrome": 1
      },
      "mesh": 5
    },
    {
      "matrix": [
        0.48850417137145996,
        0,
        0,
        0,
        0,
        0.48850417137145996,
        0,
        0,
        0,
        0,
        9.714388847351074,
        0,
        14.025172233581543,
        1.743516206741333,
        31.026958465576172,
        1
      ],
      "name": "Cylinder002",
      "extras": {
        "name": "Cylinder.002",
        "conform_object": [],
        "chrome": 1
      },
      "mesh": 6
    },
    {
      "matrix": [
        2.523618221282959,
        0,
        0,
        0,
        0,
        -3.3907045841641585e-7,
        2.5236185603534174,
        0,
        0,
        -2.5236185603534174,
        -3.3907045841641585e-7,
        0,
        0,
        0.09658176451921463,
        90.41302490234375,
        1
      ],
      "name": "Plane",
      "extras": {
        "name": "Plane",
        "conform_object": []
      },
      "mesh": 7
    },
    {
      "matrix": [
        19.867029190063477,
        0,
        0,
        0,
        0,
        19.867029190063477,
        0,
        0,
        0,
        0,
        19.867029190063477,
        0,
        0,
        0,
        0,
        1
      ],
      "name": "mainNode",
      "extras": {
        "name": "mainNode",
        "conform_object": []
      },
      "children": [
        8,
        9,
        10,
        11,
        12,
        13,
        14,
        15
      ]
    },
    {
      "children": [
        16
      ]
    },
    {
      "matrix": [
        -1,
        -1.2246467991473532e-16,
        1.4997597826618576e-32,
        0,
        -1.2246467991473532e-16,
        1,
        -1.2246467991473532e-16,
        0,
        0,
        -1.2246467991473532e-16,
        -1,
        0,
        0,
        330,
        0,
        1
      ],
      "children": [
        17
      ]
    },
    {
      "extras": {
        "isFurnituresHandles": true
      },
      "children": [
        18
      ]
    },
    {
      "matrix": [
        1,
        0,
        0,
        0,
        0,
        2.220446049250313e-16,
        1,
        0,
        0,
        -1,
        2.220446049250313e-16,
        0,
        0,
        -1015,
        0,
        1
      ],
      "children": [
        19
      ]
    },
    {
      "extras": {
        "isFurnituresHandles": true
      }
    },
    {
      "matrix": [
        -1,
        0,
        -1.2246467991473532e-16,
        0,
        0,
        1,
        0,
        0,
        1.2246467991473532e-16,
        0,
        -1,
        0,
        0,
        0,
        -330,
        1
      ],
      "children": [
        21
      ]
    },
    {
      "matrix": [
        1,
        0,
        2.4492935982947064e-16,
        0,
        0,
        1,
        0,
        0,
        -2.4492935982947064e-16,
        0,
        1,
        0,
        2162.5,
        1015,
        -2166,
        1
      ],
      "children": [
        1,
        3,
        5,
        7,
        20,
        22
      ]
    },
    {
      "children": [
        23
      ]
    }
  ],
  "bufferViews": [
    {
      "buffer": 0,
      "byteOffset": 0,
      "byteLength": 3840,
      "target": 34962,
      "byteStride": 12
    },
    {
      "buffer": 0,
      "byteOffset": 3840,
      "byteLength": 2560,
      "target": 34962,
      "byteStride": 8
    },
    {
      "buffer": 0,
      "byteOffset": 6400,
      "byteLength": 3840,
      "target": 34962,
      "byteStride": 12
    },
    {
      "buffer": 0,
      "byteOffset": 10240,
      "byteLength": 1176,
      "target": 34963
    },
    {
      "buffer": 0,
      "byteOffset": 11416,
      "byteLength": 864,
      "target": 34962,
      "byteStride": 12
    },
    {
      "buffer": 0,
      "byteOffset": 12280,
      "byteLength": 576,
      "target": 34962,
      "byteStride": 8
    },
    {
      "buffer": 0,
      "byteOffset": 12856,
      "byteLength": 864,
      "target": 34962,
      "byteStride": 12
    },
    {
      "buffer": 0,
      "byteOffset": 13720,
      "byteLength": 240,
      "target": 34963
    },
    {
      "buffer": 0,
      "byteOffset": 13960,
      "byteLength": 2304,
      "target": 34962,
      "byteStride": 12
    },
    {
      "buffer": 0,
      "byteOffset": 16264,
      "byteLength": 1536,
      "target": 34962,
      "byteStride": 8
    },
    {
      "buffer": 0,
      "byteOffset": 17800,
      "byteLength": 2304,
      "target": 34962,
      "byteStride": 12
    },
    {
      "buffer": 0,
      "byteOffset": 20104,
      "byteLength": 528,
      "target": 34963
    },
    {
      "buffer": 0,
      "byteOffset": 20632,
      "byteLength": 864,
      "target": 34962,
      "byteStride": 12
    },
    {
      "buffer": 0,
      "byteOffset": 21496,
      "byteLength": 576,
      "target": 34962,
      "byteStride": 8
    },
    {
      "buffer": 0,
      "byteOffset": 22072,
      "byteLength": 864,
      "target": 34962,
      "byteStride": 12
    },
    {
      "buffer": 0,
      "byteOffset": 22936,
      "byteLength": 2304,
      "target": 34962,
      "byteStride": 12
    },
    {
      "buffer": 0,
      "byteOffset": 25240,
      "byteLength": 1536,
      "target": 34962,
      "byteStride": 8
    },
    {
      "buffer": 0,
      "byteOffset": 26776,
      "byteLength": 2304,
      "target": 34962,
      "byteStride": 12
    },
    {
      "buffer": 0,
      "byteOffset": 29080,
      "byteLength": 672,
      "target": 34963
    },
    {
      "buffer": 0,
      "byteOffset": 29752,
      "byteLength": 792,
      "target": 34962,
      "byteStride": 12
    },
    {
      "buffer": 0,
      "byteOffset": 30544,
      "byteLength": 528,
      "target": 34962,
      "byteStride": 8
    },
    {
      "buffer": 0,
      "byteOffset": 31072,
      "byteLength": 792,
      "target": 34962,
      "byteStride": 12
    },
    {
      "buffer": 0,
      "byteOffset": 31864,
      "byteLength": 360,
      "target": 34963
    },
    {
      "buffer": 0,
      "byteOffset": 32224,
      "byteLength": 792,
      "target": 34962,
      "byteStride": 12
    },
    {
      "buffer": 0,
      "byteOffset": 33016,
      "byteLength": 528,
      "target": 34962,
      "byteStride": 8
    },
    {
      "buffer": 0,
      "byteOffset": 33544,
      "byteLength": 792,
      "target": 34962,
      "byteStride": 12
    },
    {
      "buffer": 0,
      "byteOffset": 34336,
      "byteLength": 48,
      "target": 34962,
      "byteStride": 12
    },
    {
      "buffer": 0,
      "byteOffset": 34384,
      "byteLength": 32,
      "target": 34962,
      "byteStride": 8
    },
    {
      "buffer": 0,
      "byteOffset": 34416,
      "byteLength": 48,
      "target": 34962,
      "byteStride": 12
    },
    {
      "buffer": 0,
      "byteOffset": 34464,
      "byteLength": 12,
      "target": 34963
    }
  ],
  "buffers": [
    {
      "byteLength": 34476,
      "uri": "data:application/octet-stream;base64,"
    }
  ],
  "accessors": [
    {
      "bufferView": 0,
      "componentType": 5126,
      "count": 320,
      "max": [
        329.9999694824219,
        256.1656188964844,
        1014.8228149414062
      ],
      "min": [
        -329.9999694824219,
        -359.9999694824219,
        -995.1771850585938
      ],
      "type": "VEC3"
    },
    {
      "bufferView": 1,
      "componentType": 5126,
      "count": 320,
      "max": [
        0.8746212124824524,
        0.9996244311332703
      ],
      "min": [
        0.125,
        0
      ],
      "type": "VEC2"
    },
    {
      "bufferView": 2,
      "componentType": 5126,
      "count": 320,
      "max": [
        1,
        1,
        1
      ],
      "min": [
        -1,
        -1,
        -1
      ],
      "type": "VEC3"
    },
    {
      "bufferView": 3,
      "componentType": 5123,
      "count": 588,
      "max": [
        319
      ],
      "min": [
        0
      ],
      "type": "SCALAR"
    },
    {
      "bufferView": 4,
      "componentType": 5126,
      "count": 72,
      "max": [
        2,
        6.703960418701172,
        24.181020736694336
      ],
      "min": [
        -8.390283584594727,
        -1.0000038146972656,
        -0.9999980926513672
      ],
      "type": "VEC3"
    },
    {
      "bufferView": 5,
      "componentType": 5126,
      "count": 72,
      "max": [
        0.875,
        1
      ],
      "min": [
        0.125,
        0
      ],
      "type": "VEC2"
    },
    {
      "bufferView": 6,
      "componentType": 5126,
      "count": 72,
      "max": [
        1,
        1,
        1
      ],
      "min": [
        -1,
        -1,
        -1
      ],
      "type": "VEC3"
    },
    {
      "bufferView": 7,
      "componentType": 5123,
      "count": 120,
      "max": [
        71
      ],
      "min": [
        0
      ],
      "type": "SCALAR"
    },
    {
      "bufferView": 8,
      "componentType": 5126,
      "count": 192,
      "max": [
        329.9999694824219,
        300,
        1014.8228149414062
      ],
      "min": [
        -329.9999694824219,
        256.1656188964844,
        -995.1771850585938
      ],
      "type": "VEC3"
    },
    {
      "bufferView": 9,
      "componentType": 5126,
      "count": 192,
      "max": [
        0.8746212124824524,
        0.7682642936706543
      ],
      "min": [
        0.125,
        0.4817357063293457
      ],
      "type": "VEC2"
    },
    {
      "bufferView": 10,
      "componentType": 5126,
      "count": 192,
      "max": [
        1,
        1,
        0.9999999403953552
      ],
      "min": [
        -1,
        -1,
        -1
      ],
      "type": "VEC3"
    },
    {
      "bufferView": 11,
      "componentType": 5123,
      "count": 264,
      "max": [
        191
      ],
      "min": [
        0
      ],
      "type": "SCALAR"
    },
    {
      "bufferView": 12,
      "componentType": 5126,
      "count": 72,
      "max": [
        2,
        6.703960418701172,
        28.309648513793945
      ],
      "min": [
        -8.390283584594727,
        -1.0000038146972656,
        3.127155303955078
      ],
      "type": "VEC3"
    },
    {
      "bufferView": 13,
      "componentType": 5126,
      "count": 72,
      "max": [
        0.875,
        1
      ],
      "min": [
        0.125,
        0
      ],
      "type": "VEC2"
    },
    {
      "bufferView": 14,
      "componentType": 5126,
      "count": 72,
      "max": [
        1,
        1,
        1
      ],
      "min": [
        -1,
        -1,
        -1
      ],
      "type": "VEC3"
    },
    {
      "bufferView": 15,
      "componentType": 5126,
      "count": 192,
      "max": [
        -0.912714958190918,
        1,
        1
      ],
      "min": [
        -28.998130798339844,
        -24.408485412597656,
        -1.0000152587890625
      ],
      "type": "VEC3"
    },
    {
      "bufferView": 16,
      "componentType": 5126,
      "count": 192,
      "max": [
        1,
        0.9900000095367432
      ],
      "min": [
        0,
        0
      ],
      "type": "VEC2"
    },
    {
      "bufferView": 17,
      "componentType": 5126,
      "count": 192,
      "max": [
        0.9395157098770142,
        0.9048041105270386,
        1
      ],
      "min": [
        -0.9395148754119873,
        -0.9048041105270386,
        -1
      ],
      "type": "VEC3"
    },
    {
      "bufferView": 18,
      "componentType": 5123,
      "count": 336,
      "max": [
        191
      ],
      "min": [
        0
      ],
      "type": "SCALAR"
    },
    {
      "bufferView": 19,
      "componentType": 5126,
      "count": 66,
      "max": [
        1,
        1,
        0.7228860259056091
      ],
      "min": [
        -1,
        -1,
        -1
      ],
      "type": "VEC3"
    },
    {
      "bufferView": 20,
      "componentType": 5126,
      "count": 66,
      "max": [
        1,
        0.9900000095367432
      ],
      "min": [
        0,
        0
      ],
      "type": "VEC2"
    },
    {
      "bufferView": 21,
      "componentType": 5126,
      "count": 66,
      "max": [
        1,
        1,
        1
      ],
      "min": [
        -1,
        -1,
        -1
      ],
      "type": "VEC3"
    },
    {
      "bufferView": 22,
      "componentType": 5123,
      "count": 180,
      "max": [
        65
      ],
      "min": [
        0
      ],
      "type": "SCALAR"
    },
    {
      "bufferView": 23,
      "componentType": 5126,
      "count": 66,
      "max": [
        1,
        1,
        1
      ],
      "min": [
        -1,
        -1,
        -0.722985029220581
      ],
      "type": "VEC3"
    },
    {
      "bufferView": 24,
      "componentType": 5126,
      "count": 66,
      "max": [
        1,
        0.9900000095367432
      ],
      "min": [
        0,
        0
      ],
      "type": "VEC2"
    },
    {
      "bufferView": 25,
      "componentType": 5126,
      "count": 66,
      "max": [
        1,
        1,
        1
      ],
      "min": [
        -1,
        -1,
        -1
      ],
      "type": "VEC3"
    },
    {
      "bufferView": 26,
      "componentType": 5126,
      "count": 4,
      "max": [
        1,
        1,
        0
      ],
      "min": [
        -1,
        -1,
        0
      ],
      "type": "VEC3"
    },
    {
      "bufferView": 27,
      "componentType": 5126,
      "count": 4,
      "max": [
        1,
        1
      ],
      "min": [
        0,
        0
      ],
      "type": "VEC2"
    },
    {
      "bufferView": 28,
      "componentType": 5126,
      "count": 4,
      "max": [
        0,
        0,
        1
      ],
      "min": [
        0,
        0,
        1
      ],
      "type": "VEC3"
    },
    {
      "bufferView": 29,
      "componentType": 5123,
      "count": 6,
      "max": [
        3
      ],
      "min": [
        0
      ],
      "type": "SCALAR"
    }
  ],
  "materials": [
    {
      "pbrMetallicRoughness": {
        "baseColorFactor": [
          0.6173980236053467,
          0.6173980236053467,
          0.6173980236053467,
          1
        ],
        "metallicFactor": 0,
        "roughnessFactor": 0.25
      },
      "doubleSided": true,
      "name": "Material",
      "extensions": {
        "KHR_materials_ior": {
          "ior": 1.4500000476837158
        },
        "KHR_materials_specular": {
          "specularFactor": 1,
          "specularColorFactor": [
            2.371357614441398,
            2.371357614441398,
            2.371357614441398
          ]
        }
      }
    },
    {
      "pbrMetallicRoughness": {
        "metallicFactor": 1,
        "roughnessFactor": 1
      }
    },
    {
      "pbrMetallicRoughness": {
        "baseColorFactor": [
          0.5277180075645447,
          0.5277180075645447,
          0.5277180075645447,
          1
        ],
        "metallicFactor": 1,
        "roughnessFactor": 0.13212436437606812
      },
      "doubleSided": true,
      "name": "chrome",
      "extensions": {
        "KHR_materials_ior": {
          "ior": 1.4500000476837158
        },
        "KHR_materials_specular": {
          "specularFactor": 1,
          "specularColorFactor": [
            0,
            0,
            0
          ]
        }
      }
    },
    {
      "pbrMetallicRoughness": {
        "baseColorFactor": [
          0.007325171958655119,
          0.007325171958655119,
          0.007325171958655119,
          1
        ],
        "metallicFactor": 0,
        "roughnessFactor": 0.5,
        "baseColorTexture": {
          "index": 0,
          "texCoord": 0
        }
      },
      "alphaMode": "BLEND",
      "doubleSided": true,
      "name": "Material.001"
    }
  ],
  "meshes": [
    {
      "primitives": [
        {
          "mode": 4,
          "attributes": {
            "POSITION": 0,
            "TEXCOORD_0": 1,
            "NORMAL": 2
          },
          "indices": 3,
          "material": 0
        }
      ]
    },
    {
      "primitives": [
        {
          "mode": 4,
          "attributes": {
            "POSITION": 4,
            "TEXCOORD_0": 5,
            "NORMAL": 6
          },
          "indices": 7,
          "material": 0
        }
      ]
    },
    {
      "primitives": [
        {
          "mode": 4,
          "attributes": {
            "POSITION": 8,
            "TEXCOORD_0": 9,
            "NORMAL": 10
          },
          "indices": 11,
          "material": 0
        }
      ]
    },
    {
      "primitives": [
        {
          "mode": 4,
          "attributes": {
            "POSITION": 12,
            "TEXCOORD_0": 13,
            "NORMAL": 14
          },
          "indices": 7,
          "material": 0
        }
      ]
    },
    {
      "primitives": [
        {
          "mode": 4,
          "attributes": {
            "POSITION": 15,
            "TEXCOORD_0": 16,
            "NORMAL": 17
          },
          "indices": 18,
          "material": 1
        }
      ]
    },
    {
      "primitives": [
        {
          "mode": 4,
          "attributes": {
            "POSITION": 19,
            "TEXCOORD_0": 20,
            "NORMAL": 21
          },
          "indices": 22,
          "material": 2
        }
      ]
    },
    {
      "primitives": [
        {
          "mode": 4,
          "attributes": {
            "POSITION": 23,
            "TEXCOORD_0": 24,
            "NORMAL": 25
          },
          "indices": 22,
          "material": 2
        }
      ]
    },
    {
      "primitives": [
        {
          "mode": 4,
          "attributes": {
            "POSITION": 26,
            "TEXCOORD_0": 27,
            "NORMAL": 28
          },
          "indices": 29,
          "material": 3
        }
      ]
    }
  ],
  "textures": [
    {
      "sampler": 0,
      "source": 0,
      "name": "alpha"
    }
  ],
  "samplers": [
    {
      "magFilter": 9729,
      "minFilter": 9987,
      "wrapS": 10497,
      "wrapT": 10497
    }
  ],
  "images": [
    {
      "mimeType": "image/png",
      "uri": "data:image/png;base64,"
    }
  ],
  "extensionsUsed": [
    "KHR_materials_ior",
    "KHR_materials_specular"
  ]
}